<svg width="65" height="64" viewBox="0 0 65 64" fill="none" xmlns="http://www.w3.org/2000/svg">
<path d="M30.2584 0.000168239C29.6967 0.00137282 29.1351 0.0155105 28.5739 0.0425716C27.3681 0.278195 26.8113 0.858456 26.5089 1.52262C26.1758 2.2549 26.1888 3.24025 26.5602 4.11643C26.9319 4.99306 27.6136 5.7097 28.5654 5.97735C29.5173 6.24501 30.8277 6.10667 32.55 4.89668L33.9267 7.26494C31.7626 8.78513 29.6687 9.18616 27.9327 8.69792C26.1969 8.20968 24.9088 6.87504 24.2432 5.30522C23.6161 3.82622 23.5009 2.091 24.1023 0.550056C18.2309 1.59359 12.9145 4.06831 8.83091 7.55138C7.48882 9.15849 7.35748 11.0263 7.94576 12.302C8.60654 13.7344 10.1634 14.7801 13.2772 13.6974L14.051 16.3759C10.141 17.7352 6.91819 16.2875 5.66734 13.5753C5.36226 12.9142 5.17593 12.1986 5.10274 11.4607C4.44414 12.3196 3.84957 13.2137 3.32422 14.1439L3.34146 14.1529C2.16299 17.1025 2.13618 19.1455 2.60598 20.4731C3.07605 21.8008 4.06094 22.6443 5.57746 23.1093C8.61024 24.0385 13.5213 22.9173 16.9795 20.0785C18.4598 18.8635 19.863 15.9168 19.9852 13.6316C20.0461 12.4888 19.8258 11.586 19.3908 11.0095C18.9557 10.433 18.2591 10.0016 16.817 10.018L16.7914 7.20825C18.7733 7.18569 20.3826 7.92309 21.3574 9.21473C22.332 10.5064 22.6242 12.1697 22.5374 13.7961C22.3636 17.0489 20.8143 20.438 18.51 22.3293C14.4227 25.6846 9.02422 27.0818 4.89342 25.816C2.97974 25.2296 1.28577 23.9536 0.412933 21.9772C-0.893042 28.8107 1.00436 35.1582 4.61542 39.551C5.08741 40.1254 5.58977 40.6682 6.11621 41.1719C5.73944 39.986 5.56679 38.7511 5.60729 37.5492C5.67979 35.3952 6.43936 33.2869 7.96313 31.8308C9.21274 30.636 10.939 29.9467 13.0036 29.9512C13.1412 29.9512 13.2818 29.9539 13.4225 29.9602C13.744 29.9753 14.0741 30.0059 14.4102 30.0544L14.0764 32.8409C11.9439 32.533 10.5598 33.0698 9.6389 33.9499C8.71818 34.8301 8.21021 36.1473 8.15959 37.6526C8.05835 40.6636 9.81087 44.1794 13.5895 45.1992L13.5851 45.2275C17.3053 46.0079 21.4566 45.2834 25.6243 42.4878C25.6268 42.486 25.6302 42.4852 25.6328 42.4833C26.5002 41.8142 26.9674 41.1589 27.1976 40.5942C27.4692 39.9278 27.4634 39.3474 27.2701 38.724C26.8838 37.4775 25.4998 36.196 24.2305 35.8389C22.1781 35.2615 20.8743 36.0549 20.2631 36.9997C19.6518 37.944 19.6146 38.8718 20.558 39.6778L18.9888 41.8957C17.0479 40.2367 16.9241 37.3115 18.181 35.369C19.1238 33.9123 20.7783 32.9142 22.7728 32.8504C22.8569 32.8471 22.941 32.8456 23.0251 32.8459C23.6142 32.8504 24.2276 32.9394 24.8634 33.1181C26.9846 33.715 28.9458 35.4152 29.69 37.817C29.8885 38.4608 29.9756 39.1399 29.9466 39.819C32.2327 38.5351 34.6436 37.3951 37.0993 36.5389C41.2249 34.4668 43.0135 30.8343 42.9437 27.7756C42.8733 24.6941 41.1396 22.1008 37.1463 21.6668L37.3986 18.8709C42.4148 19.4161 45.3967 23.359 45.496 27.7049C45.5538 30.2371 44.7089 32.8719 43.0078 35.1149C45.2066 34.8443 47.3917 34.8901 49.5103 35.3596C49.0791 34.3864 48.87 33.3329 48.8992 32.2864C48.9918 28.9729 51.556 25.8819 55.5857 25.8348C55.861 25.8319 56.1363 25.8428 56.4106 25.8676L56.2054 28.6681C52.7952 28.3677 51.5129 30.3351 51.4557 32.3756C51.3993 34.3935 52.6247 36.6523 56.1373 36.9521C60.009 36.9897 62.7846 34.6819 64.1447 31.2523C65.9656 26.6608 65.102 19.7769 59.3778 13.4809C59.2694 13.3617 59.1619 13.2414 59.0528 13.1238C58.9928 13.6845 58.8619 14.2333 58.664 14.7543C57.6722 17.3692 55.3487 19.1342 52.9352 19.6273C49.6059 20.3072 46.8759 18.8232 45.6159 16.5589C44.3559 14.2948 44.6867 11.0931 46.9539 9.4075L48.3863 11.7382C47.1669 12.6446 47.1167 13.8719 47.7962 15.0928C48.4757 16.3141 50.0084 17.3718 52.4691 16.8692C54.0158 16.5532 55.7382 15.1656 56.3038 13.674C56.587 12.9282 56.6417 12.1911 56.3596 11.3478C56.1305 10.6629 55.65 9.87964 54.7562 9.05474L54.7306 9.03143C50.9936 5.93585 47.0231 3.70954 42.9993 2.24137C43.0018 2.24618 43.0054 2.25039 43.0079 2.25535C43.9223 4.09282 43.9902 6.17719 43.427 8.02097C42.3006 11.7087 38.7659 14.6142 34.3932 14.4536C33.4427 14.419 32.5381 14.9228 31.7684 15.9057C30.9986 16.8886 30.4366 18.3285 30.3062 19.8623C30.0456 22.9297 31.2533 26.3109 35.9624 27.982L35.1749 30.6558C29.5544 28.6614 27.4001 23.8073 27.7572 19.6039C27.936 17.5026 28.6746 15.5498 29.8308 14.0735C30.9869 12.5972 32.6319 11.577 34.4782 11.6442C37.767 11.7648 40.2683 9.52644 41.0022 7.12374C41.3691 5.92262 41.3216 4.72737 40.7627 3.60443C40.2199 2.51398 39.1443 1.43571 37.2186 0.648846C34.9202 0.21013 32.5912 -0.00692235 30.2584 0.000168239ZM44.1058 37.883C38.3715 38.3957 32.1534 41.4016 26.9664 44.8843C19.3079 50.0265 11.2485 48.9041 5.53013 44.2408C7.77981 53.0889 15.7514 54.8848 24.0677 52.647C24.8999 52.3034 25.7176 51.6639 26.4149 50.8381C27.3804 49.6942 28.0799 48.2112 28.3002 46.9849L30.8098 47.53C30.4753 49.392 29.5678 51.2389 28.2917 52.7507C27.0672 54.201 25.472 55.3596 23.6273 55.6639C22.7017 57.9299 21.9399 60.1267 21.6307 61.6644C21.1451 64.0793 23.5742 65.0063 24.6619 62.5711C27.2642 56.7455 30.9373 51.5598 35.5253 47.0884C39.0911 44.5092 42.1477 41.3289 44.1059 37.883H44.1058Z" fill="#319BC5"/>
</svg>
